<mxfile host="app.diagrams.net" modified="2023-07-07T11:37:24.347Z" agent="Mozilla/5.0 (Windows NT 10.0; Win64; x64) AppleWebKit/537.36 (KHTML, like Gecko) Chrome/114.0.0.0 Safari/537.36 Edg/114.0.1823.67" etag="6EO2cgFOp8iTmjLkU186" version="21.4.0" type="github">
  <diagram name="第 1 页" id="zCOSoFpHUPPAA80o98TO">
    <mxGraphModel dx="1386" dy="788" grid="1" gridSize="10" guides="1" tooltips="1" connect="1" arrows="1" fold="1" page="1" pageScale="1" pageWidth="827" pageHeight="1169" math="0" shadow="0">
      <root>
        <mxCell id="0" />
        <mxCell id="1" parent="0" />
        <mxCell id="TBWZ1jaQ7PBWFv10X-pL-4" style="edgeStyle=orthogonalEdgeStyle;rounded=0;orthogonalLoop=1;jettySize=auto;html=1;exitX=1;exitY=0.25;exitDx=0;exitDy=0;entryX=0;entryY=0.5;entryDx=0;entryDy=0;" edge="1" parent="1" source="TBWZ1jaQ7PBWFv10X-pL-5" target="TBWZ1jaQ7PBWFv10X-pL-3">
          <mxGeometry relative="1" as="geometry" />
        </mxCell>
        <mxCell id="TBWZ1jaQ7PBWFv10X-pL-24" style="edgeStyle=orthogonalEdgeStyle;rounded=0;orthogonalLoop=1;jettySize=auto;html=1;exitX=1;exitY=0.5;exitDx=0;exitDy=0;entryX=0;entryY=0.5;entryDx=0;entryDy=0;" edge="1" parent="1" source="TBWZ1jaQ7PBWFv10X-pL-2" target="TBWZ1jaQ7PBWFv10X-pL-23">
          <mxGeometry relative="1" as="geometry" />
        </mxCell>
        <mxCell id="TBWZ1jaQ7PBWFv10X-pL-2" value="浏览器" style="whiteSpace=wrap;html=1;aspect=fixed;" vertex="1" parent="1">
          <mxGeometry x="30" y="200" width="120" height="120" as="geometry" />
        </mxCell>
        <mxCell id="TBWZ1jaQ7PBWFv10X-pL-8" style="edgeStyle=orthogonalEdgeStyle;rounded=0;orthogonalLoop=1;jettySize=auto;html=1;exitX=1;exitY=0.5;exitDx=0;exitDy=0;entryX=0;entryY=0.5;entryDx=0;entryDy=0;" edge="1" parent="1" source="TBWZ1jaQ7PBWFv10X-pL-9" target="TBWZ1jaQ7PBWFv10X-pL-7">
          <mxGeometry relative="1" as="geometry" />
        </mxCell>
        <mxCell id="TBWZ1jaQ7PBWFv10X-pL-3" value="username&lt;br&gt;Password&lt;br&gt;AuthenticationFilter" style="whiteSpace=wrap;html=1;aspect=fixed;" vertex="1" parent="1">
          <mxGeometry x="280" y="150" width="110" height="110" as="geometry" />
        </mxCell>
        <mxCell id="TBWZ1jaQ7PBWFv10X-pL-6" value="" style="edgeStyle=orthogonalEdgeStyle;rounded=0;orthogonalLoop=1;jettySize=auto;html=1;exitX=1;exitY=0.25;exitDx=0;exitDy=0;entryX=0;entryY=0.5;entryDx=0;entryDy=0;" edge="1" parent="1" source="TBWZ1jaQ7PBWFv10X-pL-2" target="TBWZ1jaQ7PBWFv10X-pL-5">
          <mxGeometry relative="1" as="geometry">
            <mxPoint x="150" y="230" as="sourcePoint" />
            <mxPoint x="280" y="205" as="targetPoint" />
          </mxGeometry>
        </mxCell>
        <mxCell id="TBWZ1jaQ7PBWFv10X-pL-5" value="认证" style="text;html=1;align=center;verticalAlign=middle;resizable=0;points=[];autosize=1;strokeColor=none;fillColor=none;" vertex="1" parent="1">
          <mxGeometry x="210" y="180" width="50" height="30" as="geometry" />
        </mxCell>
        <mxCell id="TBWZ1jaQ7PBWFv10X-pL-14" style="edgeStyle=orthogonalEdgeStyle;rounded=0;orthogonalLoop=1;jettySize=auto;html=1;exitX=0.5;exitY=1;exitDx=0;exitDy=0;" edge="1" parent="1" source="TBWZ1jaQ7PBWFv10X-pL-7" target="TBWZ1jaQ7PBWFv10X-pL-13">
          <mxGeometry relative="1" as="geometry" />
        </mxCell>
        <mxCell id="TBWZ1jaQ7PBWFv10X-pL-19" style="edgeStyle=orthogonalEdgeStyle;rounded=0;orthogonalLoop=1;jettySize=auto;html=1;exitX=0.5;exitY=0;exitDx=0;exitDy=0;entryX=0.5;entryY=1;entryDx=0;entryDy=0;" edge="1" parent="1" source="TBWZ1jaQ7PBWFv10X-pL-7" target="TBWZ1jaQ7PBWFv10X-pL-18">
          <mxGeometry relative="1" as="geometry" />
        </mxCell>
        <mxCell id="TBWZ1jaQ7PBWFv10X-pL-7" value="rememberMe&lt;br&gt;Services.&lt;br&gt;LoginSuccess()" style="whiteSpace=wrap;html=1;aspect=fixed;" vertex="1" parent="1">
          <mxGeometry x="580" y="157.5" width="95" height="95" as="geometry" />
        </mxCell>
        <mxCell id="TBWZ1jaQ7PBWFv10X-pL-10" value="" style="edgeStyle=orthogonalEdgeStyle;rounded=0;orthogonalLoop=1;jettySize=auto;html=1;exitX=1;exitY=0.5;exitDx=0;exitDy=0;entryX=0;entryY=0.5;entryDx=0;entryDy=0;" edge="1" parent="1" source="TBWZ1jaQ7PBWFv10X-pL-3" target="TBWZ1jaQ7PBWFv10X-pL-9">
          <mxGeometry relative="1" as="geometry">
            <mxPoint x="390" y="205" as="sourcePoint" />
            <mxPoint x="520" y="205" as="targetPoint" />
          </mxGeometry>
        </mxCell>
        <mxCell id="TBWZ1jaQ7PBWFv10X-pL-9" value="如果登录成功&lt;br&gt;且有记住我这个字段" style="text;html=1;align=center;verticalAlign=middle;resizable=0;points=[];autosize=1;strokeColor=none;fillColor=none;" vertex="1" parent="1">
          <mxGeometry x="413.5" y="185" width="130" height="40" as="geometry" />
        </mxCell>
        <mxCell id="TBWZ1jaQ7PBWFv10X-pL-13" value="jdbcToken&lt;br&gt;Repository" style="whiteSpace=wrap;html=1;aspect=fixed;" vertex="1" parent="1">
          <mxGeometry x="587.5" y="340" width="80" height="80" as="geometry" />
        </mxCell>
        <mxCell id="TBWZ1jaQ7PBWFv10X-pL-15" value="创建一个仓库在后端保存token" style="text;html=1;align=center;verticalAlign=middle;resizable=0;points=[];autosize=1;strokeColor=none;fillColor=none;" vertex="1" parent="1">
          <mxGeometry x="620" y="278" width="180" height="30" as="geometry" />
        </mxCell>
        <mxCell id="TBWZ1jaQ7PBWFv10X-pL-21" style="edgeStyle=orthogonalEdgeStyle;rounded=0;orthogonalLoop=1;jettySize=auto;html=1;exitX=0;exitY=0.5;exitDx=0;exitDy=0;entryX=0.5;entryY=0;entryDx=0;entryDy=0;" edge="1" parent="1" source="TBWZ1jaQ7PBWFv10X-pL-18" target="TBWZ1jaQ7PBWFv10X-pL-2">
          <mxGeometry relative="1" as="geometry" />
        </mxCell>
        <mxCell id="TBWZ1jaQ7PBWFv10X-pL-18" value="会先创建一个tokenRepository，来保存token&lt;br&gt;然后会创建一个token，然后添加到浏览器中" style="rounded=0;whiteSpace=wrap;html=1;" vertex="1" parent="1">
          <mxGeometry x="550" y="40" width="200" height="60" as="geometry" />
        </mxCell>
        <mxCell id="TBWZ1jaQ7PBWFv10X-pL-20" value="过程" style="text;html=1;align=center;verticalAlign=middle;resizable=0;points=[];autosize=1;strokeColor=none;fillColor=none;" vertex="1" parent="1">
          <mxGeometry x="645" y="108" width="50" height="30" as="geometry" />
        </mxCell>
        <mxCell id="TBWZ1jaQ7PBWFv10X-pL-22" value="将cookie保存到浏览器中" style="text;html=1;align=center;verticalAlign=middle;resizable=0;points=[];autosize=1;strokeColor=none;fillColor=none;" vertex="1" parent="1">
          <mxGeometry x="275" y="28" width="150" height="30" as="geometry" />
        </mxCell>
        <mxCell id="TBWZ1jaQ7PBWFv10X-pL-26" style="edgeStyle=orthogonalEdgeStyle;rounded=0;orthogonalLoop=1;jettySize=auto;html=1;exitX=1;exitY=0.5;exitDx=0;exitDy=0;entryX=0;entryY=0.5;entryDx=0;entryDy=0;" edge="1" parent="1" source="TBWZ1jaQ7PBWFv10X-pL-23" target="TBWZ1jaQ7PBWFv10X-pL-13">
          <mxGeometry relative="1" as="geometry" />
        </mxCell>
        <mxCell id="TBWZ1jaQ7PBWFv10X-pL-23" value="Remember&lt;br&gt;MeAithenticationFilter" style="whiteSpace=wrap;html=1;aspect=fixed;" vertex="1" parent="1">
          <mxGeometry x="280" y="310" width="110" height="110" as="geometry" />
        </mxCell>
        <mxCell id="TBWZ1jaQ7PBWFv10X-pL-25" value="再一次登录" style="text;html=1;align=center;verticalAlign=middle;resizable=0;points=[];autosize=1;strokeColor=none;fillColor=none;" vertex="1" parent="1">
          <mxGeometry x="150" y="298" width="80" height="30" as="geometry" />
        </mxCell>
        <mxCell id="TBWZ1jaQ7PBWFv10X-pL-27" value="去仓库里面找有没有对应的token" style="text;html=1;align=center;verticalAlign=middle;resizable=0;points=[];autosize=1;strokeColor=none;fillColor=none;" vertex="1" parent="1">
          <mxGeometry x="400" y="338" width="200" height="30" as="geometry" />
        </mxCell>
      </root>
    </mxGraphModel>
  </diagram>
</mxfile>
